<svg width="111" height="110" viewBox="0 0 111 110" fill="none" xmlns="http://www.w3.org/2000/svg">
<path d="M9.22495 95.8197C17.6651 91.7117 43.7747 96.2425 55.3368 88.1531C66.8989 96.2459 93.3363 91.3588 100.943 95.8197C108.464 100.231 107.576 98.8224 109.674 104.438C107.361 107.674 106.073 109.741 101.449 108.124C89.8865 104.888 66.8989 109.648 55.3368 104.795C43.7747 109.652 20.7871 104.888 9.22495 108.124C4.6001 109.741 3.31242 107.425 1 104.185C5.62143 97.7105 1.19466 99.7246 9.22495 95.8197Z" fill="white" stroke="white" stroke-width="1.49989" stroke-linejoin="round"/>
<path d="M29.7191 86.4818C38.2583 94.8043 72.4152 94.8043 80.9545 86.4818C82.6623 81.4883 80.9545 79.8238 80.9545 79.8238C80.9545 71.5014 73.9113 66.5079 73.9113 66.5079C92.6976 61.5144 92.9094 28.2244 55.3368 14.9084C17.7642 28.2244 18.7137 62.0203 37.5 67.0138C37.5 67.0138 29.4663 70.2396 29.4663 78.5621C29.4663 78.5621 28.0113 81.4883 29.7191 86.4818Z" fill="white" stroke="white" stroke-width="1.49989" stroke-linejoin="round"/>
<path d="M65.6692 10.8604C65.6692 16.3066 60.8804 20.7208 54.9712 20.7208C49.0621 20.7208 44.2733 16.3066 44.2733 10.8604C44.2733 5.41416 49.0621 1 54.9712 1C60.8769 1.00333 65.6692 5.41749 65.6692 10.8604Z" fill="white" stroke="white" stroke-width="1.23114" stroke-linejoin="round"/>
<path d="M38.2584 66.5078H72.4153H38.2584Z" fill="#FF8BFF"/>
<path d="M38.2584 66.5078H72.4153" stroke="#FF78FF" stroke-width="1.49989" stroke-linecap="round"/>
<path d="M55.3334 31.5535V48.1984V31.5535Z" fill="#FF8BFF"/>
<path d="M55.3334 31.5535V48.1984" stroke="#FF78FF" stroke-width="1.49989" stroke-linecap="round"/>
<path d="M46.7976 39.876H63.8761H46.7976Z" fill="#FF8BFF"/>
<path d="M46.7976 39.876H63.8761" stroke="#FF78FF" stroke-width="1.49989" stroke-linecap="round"/>
<path d="M13.6971 97.036C24.0797 94.0543 44.7222 98.3581 55.1047 90.9009C65.4873 98.3581 86.1298 94.0543 96.5123 97.036C96.5123 97.036 101.561 98.6986 105.714 103.171C103.638 106.153 100.665 106.196 96.5123 104.705C86.1298 101.72 65.4904 106.11 55.1047 101.637C44.7222 106.11 24.0797 101.72 13.6971 104.705C9.54408 106.196 6.57194 106.153 4.49542 103.171C8.64845 97.2078 13.6971 97.036 13.6971 97.036Z" fill="black" stroke="black" stroke-width="1.49996" stroke-linejoin="round"/>
<path d="M32.1006 84.7657C39.7687 92.4346 70.4409 92.4346 78.109 84.7657C79.6426 80.1644 78.109 78.6306 78.109 78.6306C78.109 70.9617 70.4409 66.3604 70.4409 66.3604C87.3107 61.759 88.8443 31.0835 55.1048 18.8132C21.3653 31.0835 22.8989 61.759 39.7687 66.3604C39.7687 66.3604 32.1006 70.9617 32.1006 78.6306C32.1006 78.6306 30.567 80.1644 32.1006 84.7657Z" fill="black" stroke="black" stroke-width="1.49996" stroke-linejoin="round"/>
<path d="M62.7729 11.1442C62.7729 15.3805 59.3406 18.8131 55.1048 18.8131C50.8689 18.8131 47.4367 15.3805 47.4367 11.1442C47.4367 6.90794 50.8689 3.47534 55.1048 3.47534C59.3376 3.47534 62.7729 6.91101 62.7729 11.1442Z" fill="black" stroke="black" stroke-width="1.49996" stroke-linejoin="round"/>
<path d="M39.7686 66.3604H70.4409" stroke="white" stroke-width="1.49996" stroke-linecap="round"/>
<path d="M32.1006 78.6306H78.109" stroke="white" stroke-width="1.49996" stroke-linecap="round"/>
<path d="M55.1048 34.1509V49.4887" stroke="white" stroke-width="1.49996" stroke-linecap="round"/>
<path d="M47.4367 41.8198H62.7729" stroke="white" stroke-width="1.49996" stroke-linecap="round"/>
</svg>
