<svg width="107" height="108" viewBox="0 0 107 108" fill="none" xmlns="http://www.w3.org/2000/svg">
<path d="M12.2017 96.5604C22.5843 93.5787 43.2267 97.8825 53.6093 90.4253C63.9918 97.8825 84.6343 93.5787 95.0169 96.5604C95.0169 96.5604 100.066 98.223 104.219 102.696C102.142 105.677 99.1699 105.72 95.0169 104.229C84.6343 101.248 63.9918 105.634 53.6093 101.162C43.2267 105.634 22.5843 101.248 12.2017 104.229C8.04866 105.72 5.07651 105.677 3 102.696C7.15303 96.7322 12.2017 96.5604 12.2017 96.5604Z" fill="white" stroke="black" stroke-width="4.99985" stroke-linejoin="round"/>
<path d="M30.605 84.2902C38.2731 91.9591 68.9453 91.9591 76.6134 84.2902C78.147 79.6889 76.6134 78.1551 76.6134 78.1551C76.6134 70.4862 68.9453 65.885 68.9453 65.885C85.8151 61.2837 87.3487 30.6081 53.6092 18.3379C19.8697 30.6081 21.4033 61.2837 38.2731 65.885C38.2731 65.885 30.605 70.4862 30.605 78.1551C30.605 78.1551 29.0714 79.6889 30.605 84.2902Z" fill="white" stroke="black" stroke-width="4.99985" stroke-linejoin="round"/>
<path d="M61.2773 10.6689C61.2773 14.9052 57.8451 18.3378 53.6092 18.3378C49.3765 18.3378 45.9412 14.9052 45.9412 10.6689C45.9412 6.4326 49.3734 3 53.6092 3C57.842 3 61.2773 6.43566 61.2773 10.6689Z" fill="white" stroke="black" stroke-width="4.99985" stroke-linejoin="round"/>
<path d="M38.2731 65.885H68.9454" stroke="black" stroke-width="4.99985"/>
<path d="M30.605 78.155H76.6135" stroke="black" stroke-width="4.99985"/>
<path d="M53.6093 33.6755V49.0133" stroke="black" stroke-width="4.99985" stroke-linecap="round"/>
<path d="M45.9412 41.3445H61.2773" stroke="black" stroke-width="4.99985" stroke-linecap="round"/>
</svg>
