<svg width="113" height="113" viewBox="0 0 113 113" fill="none" xmlns="http://www.w3.org/2000/svg">
    <path d="M56.8992 23.6869V3V23.6869Z" fill="white"/>
    <path d="M56.8992 23.6869V3" stroke="white" stroke-width="5.99994" stroke-linecap="round"/>
    <path d="M56.8991 66.1199C56.8991 66.1199 74.4591 38.2838 68.9429 27.2508C68.9429 27.2508 64.254 18.3103 56.8991 18.3103C49.5442 18.3103 44.8556 27.7583 44.8556 27.7583C39.3394 38.7876 56.8991 66.1199 56.8991 66.1199Z"
          fill="white" stroke="white" stroke-width="1.50008"/>
    <path d="M17.7085 102.503C37.9345 115.375 73.4477 115.121 93.6737 102.249L93.42 79.0321C93.42 79.0321 120.457 65.7631 109.424 43.7008C94.7145 19.7959 59.7786 30.8289 50.585 58.4114L56.8991 65.4763V52.6045C43.5242 30.0714 17.4252 21.565 3.86645 42.1856C-7.16592 64.2516 17.2046 78.9622 17.2046 78.9622L17.7085 102.503Z"
          fill="white" stroke="white" stroke-width="1.50008" stroke-linecap="round" stroke-linejoin="round"/>
    <path d="M47.7056 10.3555H66.0928H47.7056Z" fill="white"/>
    <path d="M47.7056 10.3555H66.0928" stroke="white" stroke-width="5.99994" stroke-linecap="round"/>
    <path d="M56.9817 21.817V4.56201" stroke="black" stroke-width="1.49996" stroke-linecap="round"/>
    <path d="M56.9816 62.8455C56.9816 62.8455 70.7841 39.8389 66.1833 30.6362C66.1833 30.6362 63.116 22.9673 56.9816 22.9673C50.8471 22.9673 47.7799 30.6362 47.7799 30.6362C43.179 39.8389 56.9816 62.8455 56.9816 62.8455Z"
          fill="black" stroke="black" stroke-width="1.49996"/>
    <path d="M23.2421 99.6564C40.1119 110.393 70.7841 110.393 87.6539 99.6564V78.1835C87.6539 78.1835 115.259 64.3795 106.057 45.9741C93.7884 26.035 64.6497 35.2377 56.9816 58.2443C46.2463 35.2377 17.1076 26.035 7.90595 45.9741C-1.29573 64.3795 23.2421 76.6497 23.2421 76.6497V99.6564Z"
          fill="black"/>
    <path d="M56.9816 58.2443C64.6497 35.2377 93.7884 26.035 106.057 45.9741C115.259 64.3795 87.6539 78.1835 87.6539 78.1835V99.6564C70.7841 110.393 40.1119 110.393 23.2421 99.6564V76.6497C23.2421 76.6497 -1.29573 64.3795 7.90595 45.9741C17.1076 26.035 46.2463 35.2377 56.9816 58.2443ZM56.9816 58.2443V68.9808"
          stroke="black" stroke-width="1.49996" stroke-linecap="round" stroke-linejoin="round"/>
    <path d="M49.3136 10.6973H64.6497" stroke="black" stroke-width="1.49996" stroke-linecap="round"/>
    <path d="M23.2422 76.6497C40.1119 68.9808 70.7842 68.9808 87.654 78.1835" stroke="white" stroke-width="1.49996"
          stroke-linecap="round"/>
    <path d="M23.2422 99.6562C40.1119 91.9873 70.7842 91.9873 87.654 99.6562" stroke="white" stroke-width="1.49996"
          stroke-linecap="round" stroke-linejoin="round"/>
    <path d="M23.2422 88.9199C40.1119 82.7848 70.7842 82.7848 87.654 88.9199" stroke="white" stroke-width="1.49996"
          stroke-linecap="round" stroke-linejoin="round"/>
    <path d="M86.1203 76.6496C86.1203 76.6496 112.192 64.3793 104.603 47.0384C92.7057 29.0932 64.6497 41.3727 56.9816 61.3118M56.9816 61.3118L57.0183 67.7445M56.9816 61.3118C49.3136 41.3727 18.356 29.0932 9.43041 47.0384C1.77154 64.3793 24.3002 74.6465 24.3002 74.6465"
          stroke="white" stroke-width="1.49996" stroke-linecap="round" stroke-linejoin="round"/>
</svg>
