<svg width="104" height="105" viewBox="0 0 104 105" fill="none" xmlns="http://www.w3.org/2000/svg">
    <path d="M50.828 9.80298C88.359 13.965 105.469 35.952 103.835 104.595H27.949C27.056 67.677 58.668 83.1699 52.131 35.7739"
          fill="black"/>
    <path d="M60.967 36.689C62.338 46.399 44.381 61.267 35.656 66.709C24.959 73.38 25.604 81.1939 17.828 80.0509C13.709 74.7179 18.262 74.1469 14.262 76.7159C10.697 76.7159 -0.0109915 80.0509 8.46869e-06 63.3739C8.46869e-06 56.7029 18.894 23.3479 18.894 23.3479C18.894 23.3479 24.19 17.003 24.597 11.674C22.009 8.35695 23.529 5.00297 23.529 1.66797C27.094 -1.66803 36.19 10.007 36.19 10.007H40.464C40.464 10.007 44.144 3.362 50.271 0C53.837 0 53.837 10.007 53.837 10.007"
          fill="black"/>
    <path d="M9.974 60.4679C9.974 61.3699 9.243 62.1019 8.34 62.1019C7.438 62.1019 6.70599 61.3699 6.70599 60.4679C6.70599 59.5649 7.437 58.834 8.34 58.834C9.243 58.834 9.974 59.5649 9.974 60.4679Z"
          fill="#F2F2F2"/>
    <path d="M27.731 28.5979C26.377 30.9429 24.646 32.478 23.864 32.027C23.083 31.575 23.547 29.309 24.9 26.964C26.254 24.619 27.985 23.0839 28.767 23.5349C29.548 23.9859 29.085 26.2529 27.731 28.5979Z"
          fill="#F2F2F2"/>
    <path d="M59.162 11.111L58.182 14.7069L59.98 15.0339C70.116 16.5939 80.647 22.3369 88.005 36.2599C95.364 50.1829 97.556 72.095 95.931 104.595L95.767 104.622H101.487V104.595C103.131 71.722 98.622 49.507 90.865 34.829C83.108 20.151 71.945 13.147 60.838 11.438L59.162 11.111Z"
          fill="black"/>
    <path d="M51.933 12.7C84.139 15.768 102.542 37.2409 101.009 101.659H30.463C30.463 74.0509 61.135 81.72 55.001 37.24"
          fill="white"/>
    <path d="M51.933 12.7C84.139 15.768 102.542 37.2409 101.009 101.659H30.463C30.463 74.0509 61.135 81.72 55.001 37.24"
          stroke="black" stroke-linecap="round"/>
    <path d="M58.067 37.241C59.246 46.172 41.035 59.845 33.529 64.849C24.327 70.984 24.882 78.171 18.193 77.12C14.998 74.224 22.528 67.802 18.193 67.917C15.126 67.917 18.768 71.6949 15.126 74.0519C12.059 74.0519 2.848 77.12 2.857 61.782C2.857 55.647 21.26 24.9709 21.26 24.9709C21.26 24.9709 27.044 19.1359 27.394 14.2339C25.167 11.1839 25.86 8.09888 25.86 5.03088C28.927 1.96388 35.062 12.7 35.062 12.7H41.197C41.197 12.7 43.595 6.58995 48.865 3.49695C51.932 3.49695 51.932 12.7 51.932 12.7"
          fill="white"/>
    <path d="M58.067 37.241C59.246 46.172 41.035 59.845 33.529 64.849C24.327 70.984 24.882 78.171 18.193 77.12C14.998 74.224 22.528 67.802 18.193 67.917C15.126 67.917 18.768 71.6949 15.126 74.0519C12.059 74.0519 2.848 77.12 2.857 61.782C2.857 55.647 21.26 24.9709 21.26 24.9709C21.26 24.9709 27.044 19.1359 27.394 14.2339C25.167 11.1839 25.86 8.09888 25.86 5.03088C28.927 1.96388 35.062 12.7 35.062 12.7H41.197C41.197 12.7 43.595 6.58995 48.865 3.49695C51.932 3.49695 51.932 12.7 51.932 12.7"
          stroke="black" stroke-linecap="round" stroke-linejoin="round"/>
    <path d="M13.593 60.2479C13.593 61.0949 12.906 61.782 12.059 61.782C11.212 61.782 10.525 61.0949 10.525 60.2479C10.525 59.4009 11.212 58.714 12.059 58.714C12.906 58.714 13.593 59.3999 13.593 60.2479Z"
          fill="black" stroke="black" stroke-width="0.326" stroke-linecap="round" stroke-linejoin="round"/>
    <path d="M30.257 30.339C28.986 32.54 27.362 33.9809 26.629 33.5569C25.896 33.1339 26.331 31.0059 27.601 28.8059C28.871 26.6059 30.496 25.1639 31.229 25.5879C31.963 26.0109 31.527 28.138 30.257 30.339Z"
          fill="black" stroke="black" stroke-width="0.326" stroke-linecap="round" stroke-linejoin="round"/>
    <path d="M58.826 13.9269L57.906 17.3019L59.593 17.6089C69.106 19.0729 78.989 24.4629 85.894 37.5289C92.799 50.5949 95.786 70.1949 94.261 100.696L94.108 102.23H99.476V100.696C101.018 69.8459 95.859 49.9619 88.579 36.1869C81.299 22.4129 70.823 15.839 60.399 14.235L58.826 13.9269Z"
          fill="black"/>
</svg>
