<svg width="104" height="105" viewBox="0 0 104 105" fill="none" xmlns="http://www.w3.org/2000/svg">
    <path d="M50.829 9.80505C88.36 13.9661 105.47 35.9541 103.836 104.596H27.951C27.058 67.6781 58.67 83.171 52.133 35.776"
          fill="white"/>
    <path d="M60.968 36.6901C62.339 46.4011 44.383 61.2681 35.657 66.7101C24.96 73.3811 25.605 81.196 17.829 80.053C13.71 74.72 18.263 74.149 14.263 76.717C10.698 76.717 -0.0109915 80.053 8.4679e-06 63.375C8.4679e-06 56.703 18.894 23.349 18.894 23.349C18.894 23.349 24.19 17.0041 24.597 11.6741C22.008 8.35807 23.529 5.00299 23.529 1.66699C27.094 -1.66801 36.19 10.006 36.19 10.006H40.464C40.464 10.006 44.145 3.362 50.271 0C53.836 0 53.836 10.006 53.836 10.006"
          fill="white"/>
    <path d="M9.97504 60.469C9.97504 61.371 9.24303 62.104 8.34103 62.104C7.43903 62.104 6.70703 61.372 6.70703 60.469C6.70703 59.566 7.43903 58.8351 8.34103 58.8351C9.24303 58.8351 9.97504 59.567 9.97504 60.469Z"
          fill="#F2F2F2"/>
    <path d="M27.732 28.6C26.378 30.945 24.647 32.4801 23.865 32.0291C23.083 31.5781 23.547 29.3111 24.901 26.9661C26.255 24.6211 27.986 23.086 28.767 23.537C29.55 23.988 29.086 26.254 27.732 28.6Z"
          fill="#F2F2F2"/>
    <path d="M59.163 11.113L58.183 14.709L59.98 15.035C70.117 16.595 80.647 22.3381 88.006 36.2621C95.364 50.1851 97.557 72.096 95.932 104.597L95.768 104.624H101.488V104.597C103.132 71.725 98.623 49.5091 90.866 34.8311C83.109 20.1531 71.946 13.1481 60.838 11.4391L59.163 11.113Z"
          fill="white"/>
    <path d="M51.934 12.701C84.14 15.768 102.543 37.242 101.01 101.661H30.464C30.464 74.053 61.136 81.7221 55.002 37.2421"
          fill="black"/>
    <path d="M51.934 12.701C84.14 15.768 102.543 37.242 101.01 101.661H30.464C30.464 74.053 61.136 81.7221 55.002 37.2421"
          stroke="black" stroke-linecap="round"/>
    <path d="M58.069 37.2421C59.248 46.1731 41.037 59.846 33.531 64.849C24.329 70.985 24.884 78.171 18.195 77.12C15 74.224 22.53 67.802 18.195 67.917C15.128 67.917 18.77 71.696 15.128 74.053C12.061 74.053 2.85002 77.12 2.85902 61.782C2.85902 55.647 21.263 24.9711 21.263 24.9711C21.263 24.9711 27.047 19.136 27.397 14.235C25.17 11.184 25.863 8.09998 25.863 5.03198C28.93 1.96498 35.065 12.701 35.065 12.701H41.199C41.199 12.701 43.597 6.59102 48.867 3.49902C51.934 3.49902 51.934 12.701 51.934 12.701"
          fill="black"/>
    <path d="M58.069 37.2421C59.248 46.1731 41.037 59.846 33.531 64.849C24.329 70.985 24.884 78.171 18.195 77.12C15 74.224 22.53 67.802 18.195 67.917C15.128 67.917 18.77 71.696 15.128 74.053C12.061 74.053 2.85002 77.12 2.85902 61.782C2.85902 55.647 21.263 24.9711 21.263 24.9711C21.263 24.9711 27.047 19.136 27.397 14.235C25.17 11.184 25.863 8.09998 25.863 5.03198C28.93 1.96498 35.065 12.701 35.065 12.701H41.199C41.199 12.701 43.597 6.59102 48.867 3.49902C51.934 3.49902 51.934 12.701 51.934 12.701"
          stroke="black" stroke-linecap="round" stroke-linejoin="round"/>
    <path d="M13.594 60.249C13.594 61.096 12.907 61.782 12.06 61.782C11.213 61.782 10.527 61.095 10.527 60.249C10.527 59.401 11.214 58.7151 12.06 58.7151C12.907 58.7151 13.594 59.402 13.594 60.249Z"
          fill="white" stroke="white" stroke-width="0.326" stroke-linecap="round" stroke-linejoin="round"/>
    <path d="M30.258 30.3401C28.987 32.5411 27.363 33.9819 26.629 33.5579C25.896 33.1349 26.331 31.007 27.602 28.807C28.873 26.606 30.497 25.165 31.23 25.588C31.964 26.012 31.529 28.1401 30.258 30.3401Z"
          fill="white" stroke="white" stroke-width="0.326" stroke-linecap="round" stroke-linejoin="round"/>
    <path d="M58.827 13.9291L57.907 17.303L59.594 17.61C69.107 19.074 78.99 24.464 85.896 37.53C92.802 50.596 95.788 70.196 94.263 100.697L94.11 102.231H99.477V100.697C101.019 69.847 95.86 49.963 88.58 36.188C81.3 22.414 70.824 15.8391 60.4 14.2361L58.827 13.9291Z"
          fill="white"/>
</svg>
