<svg width="77" height="100" viewBox="0 0 77 100" fill="none" xmlns="http://www.w3.org/2000/svg">
<path d="M38.274 3C31.502 3 26.005 8.497 26.005 15.27C26.005 17.985 26.907 20.523 28.401 22.556C22.414 25.998 18.337 32.413 18.337 39.811C18.337 46.051 21.226 51.588 25.717 55.245C16.518 58.49 3 72.26 3 96.561H73.546C73.546 72.26 60.028 58.49 50.829 55.245C55.32 51.588 58.21 46.051 58.21 39.811C58.21 32.414 54.133 25.998 48.146 22.556C49.641 20.523 50.542 17.986 50.542 15.27C50.542 8.497 45.046 3 38.274 3Z" fill="white" stroke="black" stroke-width="5" stroke-linecap="round"/>
</svg>
