<svg width="124" height="116" viewBox="0 0 124 116" fill="none" xmlns="http://www.w3.org/2000/svg">
<path d="M15.786 69.137C45.064 63.97 87.868 66.116 108.535 71.283C108.535 71.283 118.814 26.7479 114.919 20.9139C111.023 15.0799 92.9539 47.948 92.9539 47.948L89.545 5.52795L73.378 45.3409C73.378 45.3409 67.611 9.98798 62.16 10.209C56.71 10.43 51.5739 46.225 51.5739 46.225C51.5739 46.225 42.953 12.435 35.913 12.771C28.746 13.107 31.493 48.579 31.493 48.579C31.493 48.579 14.718 17.5419 10.791 22.6809C6.86399 27.8199 15.786 69.137 15.786 69.137Z" fill="white" stroke="white" stroke-linejoin="round"/>
<path d="M14.649 63.9559C14.649 71.2509 15.926 75.0839 21.979 81.2419C23.738 83.9349 26.361 84.466 24.219 89.797C18.55 93.444 18.424 100.936 18.424 100.936C16.669 106.154 20.44 112.046 20.44 112.046C45.004 115.693 76.919 115.706 102.618 112.425C102.618 112.425 106.014 107.923 104.764 102.451C104.764 102.451 105.012 94.076 100.607 90.302C99.601 83.582 101.691 83.8909 104.334 80.1869C108.366 74.0289 109.672 72.8919 109.672 65.5969C77.548 60.1259 46.772 58.4839 14.649 63.9559Z" fill="white" stroke="white" stroke-linejoin="round"/>
<path d="M123.407 25.5509C123.407 31.3779 118.683 36.1019 112.856 36.1019C107.029 36.1019 102.305 31.3779 102.305 25.5509C102.305 19.7229 107.029 14.9989 112.856 14.9989C118.683 14.9989 123.407 19.7239 123.407 25.5509Z" fill="white" stroke="white" stroke-width="0.1896" stroke-linecap="round" stroke-linejoin="round"/>
<path d="M22.101 25.4419C22.101 31.2699 17.377 35.9939 11.55 35.9939C5.72399 35.9939 1 31.2699 1 25.4419C1 19.6139 5.72399 14.8899 11.55 14.8899C17.377 14.8899 22.101 19.6139 22.101 25.4419Z" fill="white" stroke="white" stroke-width="0.1896" stroke-linecap="round" stroke-linejoin="round"/>
<path d="M17.842 25.6129C17.842 29.0009 15.095 31.7479 11.707 31.7479C8.31903 31.7479 5.57202 29.0009 5.57202 25.6129C5.57202 22.2239 8.31903 19.4779 11.707 19.4779C15.095 19.4779 17.842 22.2239 17.842 25.6129Z" fill="white" stroke="black" stroke-width="1.63" stroke-linecap="round" stroke-linejoin="round"/>
<path d="M72.735 11.552C72.735 17.38 68.011 22.104 62.184 22.104C56.358 22.104 51.634 17.38 51.634 11.552C51.634 5.724 56.358 1 62.184 1C68.011 1 72.735 5.725 72.735 11.552Z" fill="white" stroke="white" stroke-width="0.1896" stroke-linecap="round" stroke-linejoin="round"/>
<path d="M68.451 11.809C68.451 15.197 65.705 17.944 62.317 17.944C58.928 17.944 56.182 15.197 56.182 11.809C56.182 8.42096 58.928 5.67395 62.317 5.67395C65.705 5.67295 68.451 8.41996 68.451 11.809Z" fill="white" stroke="black" stroke-width="1.63" stroke-linecap="round" stroke-linejoin="round"/>
<path d="M119.06 25.6129C119.06 29.0009 116.314 31.7479 112.926 31.7479C109.537 31.7479 106.791 29.0009 106.791 25.6129C106.791 22.2239 109.537 19.4779 112.926 19.4779C116.314 19.4769 119.06 22.2239 119.06 25.6129Z" fill="white" stroke="black" stroke-width="1.63" stroke-linecap="round" stroke-linejoin="round"/>
<path d="M46.723 14.835C46.723 20.662 41.999 25.386 36.173 25.386C30.346 25.386 25.622 20.662 25.622 14.835C25.622 9.00696 30.346 4.28296 36.173 4.28296C42 4.28396 46.723 9.00796 46.723 14.835Z" fill="white" stroke="white" stroke-width="0.1896" stroke-linecap="round" stroke-linejoin="round"/>
<path d="M42.379 14.876C42.379 18.265 39.633 21.011 36.245 21.011C32.856 21.011 30.11 18.264 30.11 14.876C30.11 11.488 32.856 8.74097 36.245 8.74097C39.633 8.74097 42.379 11.488 42.379 14.876Z" fill="white" stroke="black" stroke-width="1.63" stroke-linecap="round" stroke-linejoin="round"/>
<path d="M98.999 16.351C98.999 22.178 94.275 26.902 88.449 26.902C82.622 26.902 77.898 22.178 77.898 16.351C77.898 10.523 82.622 5.79895 88.449 5.79895C94.275 5.79895 98.999 10.523 98.999 16.351Z" fill="white" stroke="white" stroke-width="0.1896" stroke-linecap="round" stroke-linejoin="round"/>
<path d="M94.523 16.4099C94.523 19.7989 91.776 22.5449 88.388 22.5449C85 22.5449 82.253 19.7979 82.253 16.4099C82.253 13.0219 85 10.2749 88.388 10.2749C91.776 10.2749 94.523 13.0209 94.523 16.4099Z" fill="white" stroke="black" stroke-width="1.63" stroke-linecap="round" stroke-linejoin="round"/>
<path d="M20.909 68.559C46.981 63.957 85.321 63.957 103.724 68.559L109.859 31.7479L88.388 65.491V22.5449L71.518 63.9569L62.317 17.944L53.115 63.9569L36.246 21.011V65.49L14.775 31.7469L20.909 68.559Z" fill="white" stroke="black" stroke-width="5" stroke-linejoin="round"/>
<path d="M20.909 68.5589C20.909 74.6939 25.511 74.6939 28.577 80.8289C31.644 85.4309 31.644 83.8959 30.111 91.5649C25.51 94.6319 25.51 99.2338 25.51 99.2338C20.908 103.836 27.043 106.903 27.043 106.903C46.981 109.97 77.652 109.97 97.589 106.903C97.589 106.903 102.191 103.836 97.589 99.2338C97.589 99.2338 99.123 94.6319 94.523 91.5649C92.989 83.8959 92.989 85.4299 96.056 80.8289C99.123 74.6939 103.724 74.6939 103.724 68.5589C77.653 63.9569 46.981 63.9569 20.909 68.5589Z" fill="white" stroke="black" stroke-width="5" stroke-linejoin="round"/>
<path d="M28.577 80.8289C39.312 77.7619 85.321 77.7619 96.056 80.8289" stroke="black" stroke-width="5" stroke-linecap="round" stroke-linejoin="round"/>
<path d="M30.111 91.5649C48.514 88.4979 76.12 88.4979 94.523 91.5649" stroke="black" stroke-width="5" stroke-linecap="round" stroke-linejoin="round"/>
<path d="M25.51 99.2338C40.846 96.1668 82.253 96.1668 97.589 99.2338" stroke="black" stroke-width="5" stroke-linecap="round" stroke-linejoin="round"/>
</svg>
