<svg width="121" height="112" viewBox="0 0 121 112" fill="none" xmlns="http://www.w3.org/2000/svg">
    <path d="M18.566 23.576C18.566 28.428 14.6321 32.36 9.78308 32.36C4.93108 32.36 1 28.427 1 23.576C1 18.725 4.93208 14.793 9.78308 14.793C14.6321 14.792 18.566 18.725 18.566 23.576Z"
          fill="white" stroke="white" stroke-width="0.2277" stroke-linecap="round" stroke-linejoin="round"/>
    <path d="M43.3881 12.561C43.3881 17.413 39.4561 21.345 34.6071 21.345C29.7551 21.345 25.8241 17.412 25.8241 12.561C25.8241 7.71 29.7561 3.77798 34.6071 3.77798C39.4561 3.77798 43.3881 7.71 43.3881 12.561Z"
          fill="white" stroke="white" stroke-width="0.2277" stroke-linecap="round" stroke-linejoin="round"/>
    <path d="M69.4 9.784C69.4 14.635 65.468 18.567 60.619 18.567C55.767 18.567 51.8361 14.634 51.8361 9.784C51.8361 4.932 55.768 1 60.619 1C65.468 0.999 69.4 4.932 69.4 9.784Z"
          fill="white" stroke="white" stroke-width="0.2277" stroke-linecap="round" stroke-linejoin="round"/>
    <path d="M95.6641 14.834C95.6641 19.685 91.7321 23.617 86.8831 23.617C82.0311 23.617 78.1001 19.684 78.1001 14.834C78.1001 9.98198 82.0321 6.04999 86.8831 6.04999C91.7321 6.04999 95.6641 9.98298 95.6641 14.834Z"
          fill="white" stroke="white" stroke-width="0.2277" stroke-linecap="round" stroke-linejoin="round"/>
    <path d="M14.9391 63.849C44.2161 58.682 85.5051 58.682 106.173 63.849L111.798 18.975L89.708 51.818L88.696 9.39801L70.51 52.874L60.4281 3.474L50.6001 52.117L32.4121 8.43399L32.16 54.597L10.068 20.996L14.9391 63.849Z"
          fill="white" stroke="white" stroke-linejoin="round"/>
    <path d="M14.9391 63.849C14.9391 70.739 19.095 71.496 22.541 78.386C25.984 83.553 26.9961 81.074 25.2731 89.686C20.1051 93.13 20.1051 98.297 20.1051 98.297C14.9391 103.465 21.828 108.909 21.828 108.909C44.217 112.354 76.642 112.354 99.031 108.909C99.031 108.909 104.197 103.465 99.031 98.297C99.031 98.297 100.754 93.13 95.588 89.686C93.865 81.074 95.8851 82.795 99.3301 77.628C102.773 70.738 105.92 70.738 105.92 63.849C76.642 58.682 44.2161 58.682 14.9391 63.849Z"
          fill="white" stroke="white" stroke-linejoin="round"/>
    <path d="M120.16 23.42C120.16 28.272 116.228 32.204 111.379 32.204C106.527 32.204 102.596 28.271 102.596 23.42C102.596 18.569 106.528 14.637 111.379 14.637C116.228 14.637 120.16 18.569 120.16 23.42Z"
          fill="white" stroke="white" stroke-width="0.2277" stroke-linecap="round" stroke-linejoin="round"/>
    <path d="M16.2384 23.7136C16.2384 27.1033 13.4932 29.8487 10.1039 29.8487C6.71465 29.8487 3.96948 27.1033 3.96948 23.7136C3.96948 20.324 6.71465 17.5785 10.1039 17.5785C13.4932 17.5785 16.2384 20.324 16.2384 23.7136Z"
          fill="black" stroke="black" stroke-width="0.99997" stroke-linecap="round" stroke-linejoin="round"/>
    <path d="M66.8475 9.90965C66.8475 13.2962 64.1024 16.0448 60.7131 16.0448C57.3238 16.0448 54.5786 13.2962 54.5786 9.90965C54.5786 6.52 57.3238 3.77454 60.7131 3.77454C64.1024 3.77454 66.8475 6.52 66.8475 9.90965Z"
          fill="black" stroke="black" stroke-width="0.99997" stroke-linecap="round" stroke-linejoin="round"/>
    <path d="M117.457 23.7136C117.457 27.1033 114.712 29.8487 111.322 29.8487C107.933 29.8487 105.188 27.1033 105.188 23.7136C105.188 20.324 107.933 17.5785 111.322 17.5785C114.712 17.5785 117.457 20.324 117.457 23.7136Z"
          fill="black" stroke="black" stroke-width="0.99997" stroke-linecap="round" stroke-linejoin="round"/>
    <path d="M40.7762 12.977C40.7762 16.3667 38.0311 19.1122 34.6418 19.1122C31.2556 19.1122 28.5073 16.3667 28.5073 12.977C28.5073 9.58738 31.2556 6.84192 34.6418 6.84192C38.028 6.84192 40.7762 9.58738 40.7762 12.977Z"
          fill="black" stroke="black" stroke-width="0.99997" stroke-linecap="round" stroke-linejoin="round"/>
    <path d="M92.9161 14.511C92.9161 17.9006 90.1708 20.6461 86.7846 20.6461C83.3953 20.6461 80.6501 17.8976 80.6501 14.511C80.6501 11.1244 83.3953 8.37585 86.7846 8.37585C90.1708 8.37585 92.9161 11.1213 92.9161 14.511Z"
          fill="black" stroke="black" stroke-width="0.99997" stroke-linecap="round" stroke-linejoin="round"/>
    <path d="M19.3027 66.6595C45.3741 62.0582 83.7145 62.0582 102.118 66.6595L108.249 29.8488L86.7817 63.5919V20.6461L69.9119 62.0582L60.7103 16.0448L51.5086 62.0582L34.6388 19.1124V63.5919L13.1682 29.8488L19.3027 66.6595Z"
          fill="black" stroke="black" stroke-width="0.99997" stroke-linejoin="round"/>
    <path d="M19.3025 66.6594C19.3025 72.7945 23.9033 72.7945 26.9706 78.9296C30.0378 83.5309 30.0378 81.997 28.5042 89.6659C23.9033 92.7334 23.9033 97.3348 23.9033 97.3348C19.3025 101.936 25.4369 105.004 25.4369 105.004C45.3739 108.071 76.0462 108.071 95.9832 105.004C95.9832 105.004 100.584 101.936 95.9832 97.3348C95.9832 97.3348 97.5168 92.7334 92.916 89.6659C91.3824 81.997 91.3824 83.5309 94.4496 78.9296C97.5168 72.7945 102.118 72.7945 102.118 66.6594C76.0493 62.058 45.377 62.058 19.3025 66.6594Z"
          fill="black" stroke="black" stroke-width="0.99997" stroke-linejoin="round"/>
    <path d="M26.9707 78.9297C37.706 75.8621 83.7144 75.8621 94.4497 78.9297" stroke="white" stroke-width="0.99997"
          stroke-linecap="round" stroke-linejoin="round"/>
    <path d="M28.5042 89.6658C46.9075 86.5982 74.5126 86.5982 92.916 89.6658" stroke="white" stroke-width="0.99997"
          stroke-linecap="round" stroke-linejoin="round"/>
    <path d="M23.9065 97.3347C39.2426 94.2672 80.6502 94.2672 95.9864 97.3347" stroke="white" stroke-width="0.99997"
          stroke-linecap="round" stroke-linejoin="round"/>
</svg>
